<?xml version="1.0" standalone="no"?>
<svg xmlns:xlink="http://www.w3.org/1999/xlink" id="wave" style="transform:rotate(0deg); transition: 0.3s" viewBox="0 0 1440 490" version="1.1" xmlns="http://www.w3.org/2000/svg"><defs><linearGradient id="sw-gradient-0" x1="0" x2="0" y1="1" y2="0"><stop stop-color="rgba(255, 94, 94, 1)" offset="0%"/><stop stop-color="rgba(235.875, 202.961, 155.363, 1)" offset="100%"/></linearGradient></defs><path style="transform:translate(0, 0px); opacity:1" fill="url(#sw-gradient-0)" d="M0,98L60,81.7C120,65,240,33,360,65.3C480,98,600,196,720,253.2C840,310,960,327,1080,326.7C1200,327,1320,310,1440,261.3C1560,212,1680,131,1800,81.7C1920,33,2040,16,2160,65.3C2280,114,2400,229,2520,302.2C2640,376,2760,408,2880,400.2C3000,392,3120,343,3240,285.8C3360,229,3480,163,3600,114.3C3720,65,3840,33,3960,81.7C4080,131,4200,261,4320,310.3C4440,359,4560,327,4680,261.3C4800,196,4920,98,5040,89.8C5160,82,5280,163,5400,196C5520,229,5640,212,5760,228.7C5880,245,6000,294,6120,277.7C6240,261,6360,180,6480,196C6600,212,6720,327,6840,351.2C6960,376,7080,310,7200,269.5C7320,229,7440,212,7560,179.7C7680,147,7800,98,7920,73.5C8040,49,8160,49,8280,57.2C8400,65,8520,82,8580,89.8L8640,98L8640,490L8580,490C8520,490,8400,490,8280,490C8160,490,8040,490,7920,490C7800,490,7680,490,7560,490C7440,490,7320,490,7200,490C7080,490,6960,490,6840,490C6720,490,6600,490,6480,490C6360,490,6240,490,6120,490C6000,490,5880,490,5760,490C5640,490,5520,490,5400,490C5280,490,5160,490,5040,490C4920,490,4800,490,4680,490C4560,490,4440,490,4320,490C4200,490,4080,490,3960,490C3840,490,3720,490,3600,490C3480,490,3360,490,3240,490C3120,490,3000,490,2880,490C2760,490,2640,490,2520,490C2400,490,2280,490,2160,490C2040,490,1920,490,1800,490C1680,490,1560,490,1440,490C1320,490,1200,490,1080,490C960,490,840,490,720,490C600,490,480,490,360,490C240,490,120,490,60,490L0,490Z"/></svg>